<svg width="360" height="331" viewBox="0 0 360 331" fill="none" xmlns="http://www.w3.org/2000/svg">
<path d="M180.647 278.791C245.419 278.791 297.928 275.074 297.928 270.488C297.928 265.902 245.419 262.184 180.647 262.184C115.875 262.184 63.3665 265.902 63.3665 270.488C63.3665 275.074 115.875 278.791 180.647 278.791Z" fill="#EDEEF2"/>
<path d="M255.262 162.33C255.262 162.33 250.89 169.86 249.178 174.344C245.102 184.993 251.531 191.302 251.531 191.302C251.531 191.302 270.931 198.62 277.705 209.003C284.478 219.385 280.081 233.061 280.081 233.061L277.027 239.171H240.343C240.343 239.171 222.424 232.27 222.43 211.227C222.43 189.132 247.999 160.819 247.999 160.819L255.262 162.33Z" fill="#EDEEF2"/>
<path d="M235.928 239.171C235.928 239.171 226.524 233.327 222.43 226.625C216.57 217.016 217.93 209.789 217.93 209.789C217.93 209.789 221.631 210.937 231.495 212.49C236.456 213.162 241.489 213.121 246.439 212.369C246.439 212.369 249.172 220.715 246.118 228.324C243.112 235.799 235.928 239.171 235.928 239.171Z" fill="#EDEEF2"/>
<path opacity="0.4" d="M234.803 236.796C234.803 236.796 226.548 231.671 222.956 225.779C217.822 217.318 219.013 211.003 219.013 211.003C219.013 211.003 222.26 212.012 230.915 213.372C235.267 213.964 239.683 213.93 244.026 213.269C244.026 213.269 246.445 220.588 243.747 227.266C241.105 233.835 234.803 236.796 234.803 236.796Z" fill="#EDEEF2"/>
<path d="M217.93 209.776L218.269 209.861L219.243 210.097L220.755 210.447C221.359 210.58 221.994 210.719 222.714 210.87C223.434 211.021 224.22 211.178 225.048 211.336C225.877 211.493 226.748 211.644 227.655 211.789C228.562 211.934 229.505 212.067 230.461 212.176C231.416 212.284 232.39 212.387 233.364 212.441C233.854 212.441 234.343 212.496 234.833 212.514L235.559 212.55H236.285C237.246 212.587 238.196 212.599 239.115 212.599C240.034 212.599 240.929 212.599 241.758 212.538C242.586 212.478 243.391 212.441 244.122 212.369C244.854 212.296 245.513 212.2 246.1 212.097C246.687 211.994 247.195 211.873 247.606 211.753C247.925 211.667 248.238 211.56 248.543 211.432C248.652 211.388 248.757 211.335 248.858 211.275C248.764 211.346 248.665 211.408 248.561 211.462C248.265 211.619 247.958 211.755 247.642 211.867C247.443 211.946 247.213 212.018 246.965 212.097L246.572 212.212L246.148 212.321C245.544 212.466 244.896 212.599 244.165 212.707C243.433 212.816 242.635 212.913 241.788 212.979C240.941 213.046 240.046 213.088 239.121 213.112C238.196 213.136 237.24 213.112 236.267 213.112H235.541L234.803 213.082L233.334 212.997L232.59 212.943L231.852 212.871L231.12 212.792L230.413 212.726C229.451 212.599 228.508 212.448 227.594 212.278C226.681 212.109 225.81 211.934 224.988 211.746C224.165 211.559 223.385 211.372 222.666 211.191C221.946 211.009 221.299 210.828 220.724 210.665C220.15 210.502 219.648 210.35 219.231 210.224C218.813 210.097 218.499 209.988 218.281 209.915L217.93 209.776Z" fill="#EDEEF2"/>
<path d="M219.823 212.055C219.823 212.055 220.18 219.875 223.549 219.881C224.027 219.896 224.501 219.781 224.918 219.546C225.335 219.311 225.68 218.967 225.915 218.55C226.15 218.133 226.266 217.66 226.251 217.182C226.236 216.704 226.09 216.239 225.829 215.838C224.462 213.638 219.823 212.055 219.823 212.055Z" fill="#EDEEF2"/>
<path d="M306.237 207.601C309.37 195.514 301.024 188.921 297.432 186.177C297.385 186.138 297.354 186.084 297.344 186.024C297.335 185.964 297.346 185.903 297.378 185.851C297.409 185.8 297.458 185.761 297.516 185.742C297.573 185.723 297.636 185.725 297.692 185.748C300.425 187.005 305.523 190.154 309.968 197.363C317.316 209.269 313.845 222.54 304.864 229.919C293.749 239.05 277.045 239.171 277.045 239.171L280.867 223.543C280.867 223.543 300.564 229.701 306.237 207.601Z" fill="#EDEEF2"/>
<path d="M247.533 188.256C251.271 194.197 248.87 203.002 248.87 203.002C248.87 203.002 244.673 201.007 244.37 202.688C244.068 204.368 244.497 206.446 248.047 206.392C251.597 206.338 253.532 201.69 253.835 197.17C254.482 187.398 248.652 178.194 245.973 180.055C243.294 181.917 244.274 183.065 247.533 188.256Z" fill="#EDEEF2"/>
<path d="M258.371 207.287C252.256 204.434 241.135 204.078 237.531 212.266C233.63 221.132 242.973 233.418 242.973 233.418C242.973 233.418 224.8 232.209 220.507 233.279C217.441 234.065 215.209 237.546 216.624 239.19C217.58 240.295 221.517 242.386 221.517 242.386C221.517 242.386 231.797 240.604 240.766 240.604C246.777 240.604 263.027 240.447 263.027 240.447C263.027 240.447 271.651 226.293 268.742 217.023C267.303 212.405 261.098 208.538 258.371 207.287Z" fill="#EDEEF2"/>
<path d="M316.959 241.667C316.959 242.634 254.778 243.426 178.077 243.426C101.375 243.426 7.92834 242.634 7.92834 241.667C7.92834 240.7 101.375 239.921 178.077 239.921C254.778 239.921 316.959 240.694 316.959 241.667Z" fill="#EDEEF2"/>
<path opacity="0.5" d="M255.673 230.052C255.673 230.052 248.864 218.606 253.678 211.384C257.209 206.09 262.114 207.323 262.967 208.918C264.811 212.363 259.489 214.085 256.955 216.914C252.789 221.555 255.673 230.052 255.673 230.052Z" fill="#EDEEF2"/>
<path d="M37.888 190.849C40.2707 207.83 42.6555 224.808 45.0423 241.782L46.9049 241.842C45.7196 224.54 44.4557 206.9 37.888 190.849Z" fill="#EDEEF2"/>
<path d="M57.4519 188.462C52.4505 193.937 50.4427 201.467 49.1728 208.767C47.3585 219.12 47.2133 231.345 47.7516 241.842L50.3641 241.903C49.3314 223.802 51.7363 205.669 57.4519 188.462Z" fill="#EDEEF2"/>
<path d="M33.7998 221.186C35.6504 223.64 36.4184 226.716 37.1441 229.701C38.142 233.835 38.904 237.612 39.7265 241.48H42.5567C41.8915 236.814 41.0307 232.175 39.9744 227.562C39.3999 225.042 38.7649 222.474 37.3014 220.31C35.3541 217.409 32.1851 215.572 28.992 214.14C25.7989 212.707 22.4425 211.571 19.5578 209.589C22.7751 214.865 30.0806 216.237 33.7998 221.186Z" fill="#EDEEF2"/>
<path d="M187.033 230.04C188.079 231.424 188.515 233.164 188.92 234.874C189.489 237.207 189.912 239.341 190.378 241.522H191.974C191.599 238.879 191.113 236.26 190.517 233.666C190.276 232.218 189.765 230.828 189.011 229.568C187.91 227.937 186.126 226.897 184.324 226.087C182.522 225.278 180.629 224.643 179.002 223.519C180.822 226.468 184.935 227.23 187.033 230.04Z" fill="#EDEEF2"/>
<path d="M226.693 263.175C226.875 255.379 221.758 250.545 215.529 250.267C211.296 250.079 207.311 251.983 203.277 253.24C198.197 254.817 187.106 255.579 181.893 255.657C200.338 242.132 196.492 221.047 187.336 211.027C178.065 200.893 160.684 199.871 153.203 207.353C145.722 214.835 140.473 227.943 145.372 240.307C150.27 252.672 160.763 252.998 159.196 255.47C158.779 256.123 153.542 261.87 155.411 264.481C157.624 267.581 178.228 265.315 184.814 265.484H224.341C226.034 265.544 226.851 264.759 226.693 263.175Z" fill="#CE5649"/>
<path d="M226.693 263.175C226.875 255.379 221.758 250.545 215.529 250.267C211.296 250.079 207.311 251.983 203.277 253.24C198.197 254.817 187.106 255.579 181.893 255.657L181.929 255.627C175.75 257.439 170.275 261.101 166.242 266.118C173.027 266.058 181.113 265.387 184.802 265.484H224.329C226.034 265.544 226.85 264.759 226.693 263.175Z" fill="#CE5649"/>
<path d="M226.693 263.175C226.875 255.38 221.758 250.545 215.529 250.267C214.041 250.221 212.554 250.379 211.109 250.738C209.125 252.739 208.085 255.96 207.758 258.534C207.474 260.856 207.577 263.208 208.061 265.496H224.329C226.034 265.544 226.851 264.759 226.693 263.175Z" fill="#681150"/>
<path d="M199.11 200.826C199.11 199.05 187.354 199.448 187.354 199.448L187.904 204.561C187.904 204.561 199.11 202.603 199.11 200.826Z" fill="black"/>
<path d="M244.83 131.231C244.83 131.231 237.343 128.814 235.118 124.058C233.182 119.912 233.188 113.663 233.188 113.663C233.188 113.663 241.709 117.742 243.469 122.233C244.62 125.085 245.086 128.167 244.83 131.231Z" fill="#EDEEF2"/>
<path d="M244.261 130.228C244.261 130.228 238.782 128.469 237.15 124.976C235.734 121.955 235.734 117.368 235.734 117.368C235.734 117.368 241.975 120.353 243.252 123.641C244.098 125.727 244.444 127.983 244.261 130.228Z" fill="#EDEEF2"/>
<path d="M233.6 144.738C233.6 144.738 231.906 135.51 240.639 131.515C248.586 127.889 254.21 129.751 258.389 136.15C264.225 145.082 259.32 151.555 256.078 160.928C253.182 169.304 246.372 172.223 247.309 164.717C248.023 158.97 243.221 158.293 243.221 158.293C243.221 158.293 236.128 163.642 229.372 161.617C223.198 159.762 217.447 151.38 217.313 149.246C217.017 144.672 233.6 144.738 233.6 144.738Z" fill="#EDEEF2"/>
<path d="M240.99 159.671L241.407 159.447L241.885 159.182C242.066 159.079 242.272 158.964 242.49 158.831L243.191 158.396C243.433 158.233 243.687 158.064 243.941 157.87C244.205 157.684 244.457 157.482 244.697 157.266C244.947 157.051 245.176 156.812 245.38 156.553C245.484 156.428 245.577 156.294 245.658 156.154L245.719 156.045V155.997V155.936L245.828 155.719C245.959 155.427 246.065 155.123 246.142 154.812C246.22 154.529 246.249 154.235 246.227 153.942C246.193 153.447 245.978 152.982 245.622 152.637C245.496 152.51 245.356 152.399 245.205 152.304C245.108 152.242 245.007 152.185 244.903 152.135L244.794 152.087H244.915C245.026 152.122 245.135 152.164 245.241 152.214C245.409 152.292 245.567 152.39 245.713 152.504C245.906 152.657 246.069 152.843 246.197 153.054C246.345 153.308 246.442 153.59 246.481 153.882C246.52 154.206 246.508 154.534 246.445 154.855C246.378 155.19 246.277 155.519 246.142 155.834L246.033 156.075V156.13L246.003 156.196L245.937 156.311C245.852 156.471 245.753 156.623 245.64 156.764C245.422 157.043 245.177 157.3 244.909 157.532C244.654 157.751 244.386 157.953 244.104 158.136C243.845 158.314 243.577 158.477 243.3 158.626C243.034 158.771 242.786 158.904 242.55 159.012C242.314 159.121 242.096 159.218 241.903 159.296C241.709 159.375 241.534 159.441 241.389 159.49C241.159 159.629 240.99 159.671 240.99 159.671Z" fill="#EDEEF2"/>
<path d="M216.062 147.27C217.997 145.391 222.188 146.061 222.188 146.061C222.188 146.061 224.202 147.56 223.162 150.497C222.844 151.282 222.372 151.996 221.773 152.596C221.175 153.196 220.463 153.67 219.678 153.99C219.678 153.99 214.368 148.92 216.062 147.27Z" fill="#EDEEF2"/>
<path d="M217.108 147.458C217.428 146.853 218.456 146.726 218.456 146.726C218.641 146.807 218.794 146.944 218.894 147.118C218.995 147.292 219.036 147.494 219.013 147.693C218.997 147.901 218.938 148.104 218.842 148.289C218.745 148.473 218.612 148.637 218.45 148.769C218.45 148.769 216.812 147.935 217.108 147.458Z" fill="#EDEEF2"/>
<path d="M248.162 147.325C247.864 147.501 247.521 147.585 247.176 147.567C246.83 147.549 246.498 147.429 246.22 147.222C245.943 147.016 245.732 146.732 245.616 146.406C245.5 146.08 245.483 145.727 245.566 145.392C245.65 145.056 245.832 144.753 246.088 144.521C246.344 144.288 246.663 144.136 247.005 144.084C247.347 144.032 247.697 144.083 248.011 144.229C248.324 144.376 248.587 144.612 248.767 144.907C248.888 145.105 248.969 145.325 249.004 145.554C249.039 145.784 249.028 146.018 248.972 146.243C248.916 146.468 248.815 146.679 248.676 146.865C248.537 147.051 248.362 147.207 248.162 147.325Z" fill="#EDEEF2"/>
<path d="M248.706 145.156C248.635 145.196 248.553 145.214 248.471 145.208C248.388 145.203 248.31 145.173 248.244 145.124C248.179 145.074 248.129 145.006 248.101 144.929C248.073 144.851 248.069 144.767 248.088 144.687C248.107 144.607 248.149 144.535 248.209 144.478C248.269 144.422 248.344 144.384 248.425 144.369C248.506 144.355 248.59 144.364 248.665 144.397C248.741 144.429 248.806 144.482 248.852 144.551C248.884 144.599 248.906 144.654 248.916 144.712C248.927 144.769 248.925 144.828 248.911 144.885C248.898 144.942 248.873 144.995 248.837 145.042C248.802 145.088 248.757 145.127 248.706 145.156Z" fill="#EDEEF2"/>
<path d="M237.017 143.783C237.065 144.054 237.032 144.333 236.922 144.584C236.811 144.836 236.629 145.05 236.397 145.198C236.165 145.346 235.895 145.422 235.62 145.417C235.345 145.412 235.078 145.325 234.852 145.168C234.626 145.011 234.452 144.79 234.352 144.534C234.252 144.278 234.23 143.998 234.288 143.73C234.347 143.461 234.484 143.216 234.683 143.026C234.881 142.835 235.131 142.708 235.402 142.659C235.582 142.626 235.767 142.629 235.945 142.668C236.124 142.706 236.294 142.78 236.444 142.885C236.594 142.989 236.722 143.122 236.82 143.277C236.918 143.431 236.985 143.603 237.017 143.783Z" fill="#EDEEF2"/>
<path d="M236.599 142.865C236.608 142.912 236.607 142.961 236.597 143.008C236.587 143.055 236.567 143.099 236.54 143.139C236.512 143.178 236.477 143.211 236.436 143.237C236.396 143.263 236.35 143.28 236.303 143.288C236.231 143.302 236.156 143.293 236.089 143.264C236.022 143.235 235.965 143.187 235.925 143.125C235.886 143.064 235.865 142.992 235.867 142.918C235.868 142.845 235.891 142.774 235.933 142.714C235.975 142.654 236.034 142.608 236.102 142.581C236.171 142.555 236.245 142.55 236.317 142.566C236.388 142.582 236.453 142.619 236.504 142.672C236.554 142.726 236.587 142.793 236.599 142.865Z" fill="#EDEEF2"/>
<path d="M254.052 139.251C254.021 139.184 253.992 139.115 253.968 139.045C253.968 138.979 253.907 138.9 253.865 138.809C253.823 138.719 253.829 138.719 253.805 138.67L253.732 138.519L253.696 138.441L253.647 138.356C253.617 138.302 253.593 138.247 253.557 138.187L253.448 138.018L253.327 137.849L253.194 137.685L253.043 137.528C252.988 137.486 252.94 137.432 252.879 137.389L252.795 137.323L252.704 137.262L252.516 137.148L252.317 137.057C252.185 137.004 252.049 136.96 251.912 136.924L251.506 136.851H251.138C250.902 136.851 250.702 136.851 250.563 136.851H250.4H250.37C250.435 136.811 250.504 136.777 250.575 136.749L250.817 136.664C250.926 136.632 251.037 136.605 251.15 136.585C251.281 136.561 251.415 136.547 251.549 136.543C251.702 136.532 251.855 136.532 252.008 136.543C252.088 136.553 252.167 136.57 252.244 136.592L252.365 136.622L252.486 136.664L252.607 136.712L252.722 136.767C252.801 136.809 252.879 136.845 252.952 136.894C253.095 136.99 253.227 137.101 253.345 137.226C253.405 137.287 253.46 137.353 253.514 137.419L253.653 137.619C253.69 137.691 253.732 137.758 253.768 137.824L253.859 138.03C253.859 138.096 253.907 138.163 253.925 138.223L253.956 138.32V138.411C253.956 138.471 253.986 138.525 253.998 138.58C254.01 138.634 253.998 138.695 253.998 138.743V138.882C254.001 138.92 254.001 138.959 253.998 138.997C254.052 139.166 254.052 139.251 254.052 139.251Z" fill="#EDEEF2"/>
<path d="M237.603 136.048C237.541 136.029 237.481 136.007 237.422 135.981C237.361 135.981 237.289 135.945 237.216 135.915L237.089 135.884H236.95C236.847 135.878 236.744 135.878 236.642 135.884C236.587 135.881 236.533 135.881 236.478 135.884H236.394H236.309C236.253 135.899 236.198 135.919 236.146 135.945L236.067 135.981L235.988 136.023L235.831 136.126L235.68 136.241C235.486 136.41 235.31 136.599 235.154 136.803L234.93 137.093L234.743 137.365C234.628 137.534 234.531 137.679 234.464 137.788L234.362 137.951C234.36 137.933 234.36 137.915 234.362 137.897C234.362 137.867 234.362 137.818 234.362 137.758C234.362 137.697 234.392 137.619 234.416 137.534C234.44 137.45 234.47 137.359 234.507 137.256C234.592 137.026 234.702 136.805 234.833 136.598C234.868 136.537 234.906 136.478 234.948 136.422L235.009 136.338L235.081 136.253C235.175 136.138 235.281 136.033 235.396 135.939C235.51 135.84 235.636 135.755 235.771 135.685C235.905 135.614 236.05 135.565 236.2 135.54H236.309H236.46C236.529 135.534 236.597 135.534 236.666 135.54C236.788 135.555 236.908 135.585 237.023 135.631C237.074 135.649 237.123 135.673 237.168 135.703L237.289 135.77C237.354 135.812 237.416 135.859 237.476 135.909L237.603 136.048Z" fill="#EDEEF2"/>
<path d="M251.984 133.854C251.984 133.854 252.087 124.432 256.768 120.196C260.838 116.516 267.998 114.31 267.998 114.31C267.998 114.31 266.341 125.508 261.812 129.086C258.953 131.42 255.588 133.053 251.984 133.854Z" fill="#EDEEF2"/>
<path d="M252.928 132.845C252.928 132.845 253.006 125.949 256.435 122.849C259.411 120.154 264.654 118.54 264.654 118.54C264.654 118.54 263.444 126.735 260.124 129.358C258.031 131.066 255.566 132.26 252.928 132.845Z" fill="#EDEEF2"/>
<path d="M168.461 117.108H142.118C141.35 136.58 138.895 168.537 132.297 187.271C129.847 194.239 127.283 201.31 124.012 207.939C121.078 213.892 115.545 221.398 108.028 219.512C95.0074 216.249 95.0074 173.365 69.0149 150.123C67.3337 148.618 65.8399 151.168 66.6382 152.262C81.8962 173.118 75.0081 200.651 79.4047 224.432C81.2975 234.669 85.301 245.009 92.8303 252.455C100.136 259.707 110.144 263.695 120.189 265.218C140.848 268.349 162.323 260.136 175.38 243.837C189.18 226.613 191.382 204.47 184.566 183.923C176.196 158.626 162.68 129.672 168.461 117.108Z" fill="#F16A51"/>
<path d="M144.537 263.816C156.677 260.591 167.477 253.595 175.38 243.837C189.18 226.613 191.382 204.47 184.566 183.923C176.099 158.42 162.408 129.201 168.57 116.8C156.203 109.36 164.657 163.938 160.708 201.92C156.632 241.583 140.509 264.892 144.537 263.816Z" fill="#FF928D"/>
<path style="mix-blend-mode:multiply" opacity="0.44" d="M188.315 207.184C188.373 199.277 187.114 191.417 184.59 183.923C183.955 182.007 183.29 180.067 182.606 178.121H161.881C161.815 186.292 161.525 194.438 160.744 201.92C160.563 203.733 160.351 205.461 160.14 207.184H188.315Z" fill="url(#paint0_linear_8059_47492)"/>
<path d="M159.565 200.639C173.184 202.289 186.398 202.452 199.11 200.82C200.519 244.266 167.125 264.142 138.81 265.115C149.98 246.296 156.511 224.565 159.565 200.639Z" fill="#FF928D"/>
<path d="M202.358 271.116C202.539 263.327 197.423 258.492 191.194 258.214C186.961 258.021 182.975 259.93 178.942 261.181C173.862 262.765 162.77 263.526 157.557 263.599C176.003 250.074 172.15 228.994 163 218.974C153.729 208.84 136.349 207.812 128.862 215.3C121.375 222.788 116.162 235.89 121.036 248.248C125.91 260.607 136.427 260.97 134.861 263.417C134.444 264.064 129.206 269.811 131.075 272.428C133.288 275.522 153.893 273.262 160.478 273.431H199.999C201.699 273.485 202.515 272.706 202.358 271.116Z" fill="#F16A51"/>
<path d="M202.358 271.116C202.539 263.327 197.423 258.492 191.194 258.214C186.961 258.02 182.975 259.924 178.942 261.181C173.862 262.764 162.77 263.526 157.557 263.598H157.594C151.413 265.408 145.937 269.07 141.906 274.09C148.692 274.029 156.777 273.359 160.466 273.485H199.987C201.699 273.485 202.515 272.706 202.358 271.116Z" fill="#F16A51"/>
<path d="M202.358 271.116C202.539 263.327 197.423 258.492 191.194 258.214C189.706 258.162 188.218 258.319 186.773 258.679C184.79 260.68 183.749 263.901 183.417 266.481C183.138 268.803 183.242 271.155 183.725 273.443H199.987C201.699 273.485 202.515 272.706 202.358 271.116Z" fill="#681150"/>
<path d="M133.077 265.732C132.726 265.417 135.822 261.501 139.536 256.715C143.249 251.929 145.964 247.777 146.351 248.001C146.738 248.224 144.604 252.805 140.806 257.7C137.008 262.595 133.391 266.01 133.077 265.732Z" fill="#CE5649"/>
<path d="M158.573 215.076C158.392 215.27 157.122 214.17 154.782 212.991C153.414 212.304 151.979 211.759 150.5 211.366C148.692 210.889 146.835 210.618 144.966 210.556C141.553 210.454 138.152 211.023 134.958 212.23C133.748 212.713 132.738 213.13 132.073 213.469C131.408 213.807 130.978 213.916 130.918 213.825C130.857 213.735 131.142 213.427 131.74 212.937C132.591 212.251 133.516 211.664 134.498 211.185C139.615 208.696 145.488 208.248 150.923 209.934C152.484 210.423 153.973 211.118 155.35 212C157.696 213.523 158.706 214.956 158.573 215.076Z" fill="#CE5649"/>
<path d="M112.364 151.083C114.662 147.911 127.834 134.96 134.74 131.702C139.638 129.388 146.835 126.995 151.413 132.035C155.888 136.966 151.498 142.472 147.404 145.385C141.876 149.319 129.956 154.577 123.34 156.668C123.691 162.524 136.923 173.039 135.26 180.17C133.391 188.202 124.151 190.444 117.68 186.473C116.271 185.609 117.401 183.832 119.409 182.6C122.554 180.666 124.913 178.617 124.519 175.221C124.096 171.595 121.889 168.253 119.427 165.485C110.096 154.981 109.945 154.383 112.364 151.083Z" fill="#F16A51"/>
<path d="M135.248 180.152C136.717 173.843 126.533 164.886 123.927 158.843C121.671 157.145 119.125 155.616 116.331 155.411C114.807 155.312 113.287 155.667 111.965 156.432C113.108 158.287 115.412 160.964 119.415 165.467C121.877 168.234 124.084 171.576 124.507 175.202C124.901 178.599 122.542 180.641 119.397 182.581C117.389 183.79 116.259 185.603 117.668 186.455C124.139 190.432 133.379 188.184 135.248 180.152Z" fill="#FF928D"/>
<path d="M135.248 180.152C135.407 179.444 135.436 178.713 135.333 177.995C131.752 180.908 126.527 182.533 123.117 179.626C122.039 180.8 120.784 181.797 119.397 182.582C117.389 183.79 116.259 185.603 117.668 186.455C124.139 190.432 133.379 188.184 135.248 180.152Z" fill="#681150"/>
<path d="M201.463 92.6262C210.399 91.8029 218.843 88.1629 225.574 82.2316C225.66 82.157 225.725 82.0614 225.763 81.9541C225.8 81.8468 225.809 81.7316 225.788 81.6199C225.767 81.5082 225.718 81.4038 225.644 81.3172C225.571 81.2305 225.476 81.1645 225.369 81.1257C216.654 78.8111 207.662 76.424 198.56 77.2398C191.242 77.8985 184.088 80.7147 179.129 86.2625C178.863 86.5586 179.764 88.6798 180.665 89.1391C182.837 90.1853 185.122 90.9801 187.475 91.5081C192.043 92.6546 196.77 93.0325 201.463 92.6262Z" fill="#F16A51"/>
<path d="M206.573 80.4792C206.433 84.2898 207.792 88.0036 210.359 90.8253C215.969 89.0382 221.149 86.1125 225.574 82.2317C225.66 82.1572 225.725 82.0615 225.763 81.9542C225.8 81.8469 225.809 81.7317 225.788 81.62C225.767 81.5083 225.718 81.404 225.644 81.3173C225.571 81.2306 225.476 81.1646 225.369 81.1258C219.358 79.5304 213.219 77.8986 207.002 77.3064C206.75 78.3464 206.607 79.4096 206.573 80.4792Z" fill="#F16A51"/>
<path d="M199.993 91.5868C206.718 91.1344 213.216 88.9708 218.868 85.3017C218.931 85.262 218.98 85.2033 219.007 85.134C219.034 85.0647 219.039 84.9885 219.02 84.9164C219.001 84.8444 218.96 84.7802 218.902 84.7332C218.844 84.6862 218.773 84.6588 218.698 84.6551C211.84 83.3558 204.789 82.0141 197.623 82.558C191.883 82.9992 186.283 84.7034 182.413 87.9971C182.207 88.1723 182.927 89.4112 183.622 89.6771C185.368 90.2862 187.166 90.7353 188.993 91.0187C192.621 91.6663 196.317 91.8571 199.993 91.5868Z" fill="#681150"/>
<path d="M191.799 78.8354C198.852 73.2943 203.963 65.6599 206.398 57.0311C206.432 56.9206 206.437 56.8029 206.411 56.6902C206.385 56.5774 206.329 56.4736 206.25 56.3893C206.17 56.3051 206.07 56.2434 205.959 56.2107C205.848 56.178 205.73 56.1754 205.617 56.2031C197.036 58.9831 188.188 61.8476 180.986 67.474C175.198 71.9883 170.705 78.2372 169.562 85.604C169.501 85.9968 171.406 87.284 172.416 87.1874C174.814 86.8869 177.17 86.3131 179.438 85.4771C183.897 83.9612 188.074 81.7169 191.799 78.8354Z" fill="#F16A51"/>
<path d="M213.364 110.629C212.796 109.729 209.458 109.276 208.411 108.774C206.748 107.963 205.162 107 203.676 105.898C200.603 103.565 197.751 100.955 195.155 98.1016C189.743 92.4148 184.306 86.305 176.837 83.7305C172.977 82.4207 168.78 82.4958 164.969 83.9428C161.158 85.3898 157.971 88.1184 155.955 91.6594C155.537 92.4027 153.221 95.6359 149.617 100.338C147.354 103.294 145.613 106.615 144.47 110.158L142.118 117.549L167.639 120.184L167.717 120.142C170.63 118.769 173.692 117.741 176.843 117.078C183.362 115.797 189.833 116.624 196.334 116.534C198.657 116.498 215.566 114.104 213.364 110.629Z" fill="#F16A51"/>
<path d="M191.666 115.138C191.696 115.271 190.952 115.579 189.7 115.434C188.876 115.331 188.081 115.062 187.365 114.642C186.648 114.222 186.025 113.661 185.533 112.993C185.04 112.324 184.689 111.563 184.501 110.754C184.313 109.946 184.292 109.108 184.439 108.291C184.669 107.052 185.183 106.441 185.304 106.478C185.425 106.514 185.237 107.239 185.225 108.345C185.165 109.763 185.592 111.159 186.434 112.302C187.277 113.445 188.484 114.266 189.858 114.63C190.916 114.975 191.648 114.968 191.666 115.138Z" fill="black"/>
<path d="M213.147 112.152C203.186 113.965 196.818 111.512 186.259 103.867C176.886 97.0803 172.688 97.1286 169.326 101.788C166.762 105.335 165.093 115.579 176.825 117.078C183.344 115.796 189.815 116.624 196.316 116.534C198.294 116.504 210.704 114.787 213.147 112.152Z" fill="#FF928D"/>
<path d="M180.949 112.406C180.378 112.639 179.909 113.067 179.625 113.615C179.549 113.89 179.567 114.183 179.677 114.447C179.786 114.711 179.981 114.931 180.23 115.071C180.728 115.349 181.31 115.437 181.869 115.319C182.398 115.26 182.9 115.05 183.314 114.715C183.528 114.549 183.694 114.33 183.795 114.079C183.896 113.829 183.928 113.556 183.889 113.288C183.495 111.802 181.887 112.086 180.949 112.406Z" fill="#BB3A45"/>
<path d="M214.737 112.062C215.066 111.864 215.339 111.585 215.529 111.252C215.714 110.783 215.709 110.261 215.516 109.795C215.324 109.33 214.957 108.957 214.495 108.756C214.155 108.538 213.742 108.462 213.346 108.545L213.189 108.587C213 108.618 212.814 108.665 212.633 108.726C212.473 108.728 212.313 108.742 212.155 108.768C211.786 108.793 211.429 108.906 211.114 109.097C210.798 109.288 210.533 109.553 210.341 109.868C210.006 110.078 209.766 110.41 209.669 110.793C209.612 111.046 209.621 111.309 209.695 111.558C209.769 111.807 209.906 112.032 210.093 112.213V112.261C210.12 112.306 210.163 112.338 210.214 112.352C210.865 112.889 211.679 113.191 212.524 113.21C212.958 113.21 213.385 113.105 213.771 112.906C214.156 112.706 214.487 112.416 214.737 112.062Z" fill="black"/>
<path d="M186.211 96.5906C185.916 97.1243 185.819 97.7452 185.939 98.3432C186.053 98.6024 186.249 98.817 186.497 98.9535C186.745 99.0901 187.031 99.1411 187.311 99.0986C187.874 98.9987 188.381 98.698 188.739 98.2525C189.109 97.8647 189.359 97.3776 189.458 96.8505C189.517 96.5878 189.505 96.3145 189.424 96.0578C189.344 95.8011 189.197 95.5701 188.999 95.388C187.795 94.5057 186.713 95.7264 186.211 96.5906Z" fill="black"/>
<path d="M186.622 97.4676C186.71 97.5324 186.816 97.5674 186.924 97.5674C187.033 97.5674 187.139 97.5324 187.227 97.4676C187.559 97.1954 187.457 96.5181 186.961 96.5544C186.465 96.5907 186.265 97.1712 186.622 97.4676Z" fill="white"/>
<path d="M178.204 92.324C177.881 92.9138 177.776 93.5985 177.908 94.2579C178.031 94.5448 178.247 94.7825 178.521 94.9335C178.794 95.0844 179.111 95.1402 179.419 95.0919C180.041 94.9823 180.601 94.6517 180.998 94.1612C181.402 93.7302 181.677 93.194 181.79 92.6141C181.853 92.3242 181.84 92.0229 181.751 91.7399C181.661 91.4569 181.5 91.2021 181.282 91.0006C179.958 90.0457 178.76 91.3752 178.204 92.324Z" fill="black"/>
<path d="M178.657 93.2979C178.756 93.3744 178.877 93.4159 179.002 93.4159C179.127 93.4159 179.248 93.3744 179.347 93.2979C179.716 93.0015 179.601 92.2516 179.056 92.294C178.945 92.3038 178.838 92.3444 178.748 92.4114C178.659 92.4783 178.589 92.5688 178.548 92.6729C178.506 92.777 178.495 92.8906 178.514 93.0009C178.533 93.1113 178.583 93.2141 178.657 93.2979Z" fill="white"/>
<path d="M108.336 101.28H42.4781C42.3144 101.306 42.1467 101.285 41.9943 101.22C42.1153 100.978 42.2241 100.724 42.3511 100.489C42.9116 99.4878 43.6398 98.5904 44.5041 97.8356C46.0516 96.4655 47.926 95.5165 49.9469 95.0799C50.8014 94.8882 51.6683 94.757 52.5413 94.6871C53.0311 94.6448 53.527 94.6871 54.0108 94.6206C55.1234 94.5266 56.226 94.3386 57.3068 94.0586C58.42 93.7485 59.5093 93.3587 60.5664 92.8922C61.3768 92.5356 62.163 92.1368 62.9431 91.7258C64.2796 91.0248 65.5859 90.2633 66.9285 89.5684C67.6677 89.1895 68.4268 88.8506 69.2024 88.5531C70.214 88.174 71.2559 87.8808 72.3169 87.6768C72.4176 87.6706 72.5185 87.6706 72.6192 87.6768C72.7099 87.6768 72.7462 87.6163 72.7583 87.5317H75.7095C75.7095 87.6405 75.7882 87.6707 75.8849 87.6828C76.9545 87.8596 77.9893 88.2043 78.951 88.7041C79.6102 89.0421 80.2484 89.4195 80.8621 89.8343C82.1563 90.6864 83.3839 91.6473 84.6902 92.451C85.1135 92.723 85.5368 92.9889 85.9783 93.2367C86.5496 93.5568 87.137 93.8473 87.7382 94.1069C88.2885 94.3511 88.8566 94.5532 89.4375 94.7112C90.2324 94.9223 91.0406 95.0798 91.8566 95.1826C92.4093 95.1826 92.9613 95.225 93.5076 95.3095C93.6184 95.3396 93.7353 95.3396 93.8462 95.3095C94.091 95.2472 94.3445 95.2268 94.5961 95.2491C95.2613 95.2491 95.9266 95.2491 96.5918 95.3035C97.257 95.3579 97.8013 95.4002 98.4061 95.4908C99.3721 95.6443 100.323 95.8809 101.248 96.1979C102.302 96.5641 103.316 97.038 104.272 97.612C105.329 98.2434 106.304 99.0025 107.175 99.8722C107.492 100.196 107.789 100.539 108.064 100.9C108.092 100.949 108.131 100.99 108.179 101.02C108.226 101.051 108.28 101.07 108.336 101.075V101.28Z" fill="#EDEEF2"/>
<path d="M162.075 85.332C162.075 85.332 141.961 98.5065 141.961 121.906C151.588 126.711 154.225 113.99 154.225 113.99L163.23 91.9616L162.075 85.332Z" fill="#F16A51"/>
<path d="M189.495 65.8723C191.442 69.1555 194.602 71.5428 198.294 72.52C202.026 67.9737 204.784 62.71 206.398 57.0551C206.438 56.9432 206.447 56.8225 206.423 56.7059C206.4 56.5894 206.345 56.4814 206.265 56.3938C206.185 56.3061 206.082 56.2419 205.968 56.2083C205.854 56.1747 205.733 56.1728 205.617 56.2029C199.703 58.1187 193.661 60.0767 188.116 62.9473C188.472 63.9675 188.935 64.9478 189.495 65.8723Z" fill="#F16A51"/>
<path d="M189.997 78.7507C195.399 74.727 199.682 69.3886 202.436 63.2435C202.468 63.1762 202.477 63.1008 202.462 63.0281C202.448 62.9554 202.411 62.889 202.357 62.8387C202.302 62.7883 202.233 62.7565 202.16 62.7478C202.086 62.7391 202.011 62.7539 201.947 62.7902C195.482 65.4191 188.811 68.1265 183.108 72.4596C178.524 75.9406 174.745 80.4126 173.287 85.2775C173.209 85.5374 174.497 86.184 175.228 86.0269C177.024 85.5892 178.776 84.9926 180.466 84.2441C183.86 82.8178 187.062 80.9723 189.997 78.7507Z" fill="#681150"/>
<path d="M311.323 64.7906H265.047V64.6637C265.289 64.6637 265.349 64.434 265.44 64.295C266.105 63.3644 266.843 62.482 267.587 61.6299C268.259 60.8537 268.972 60.1134 269.722 59.412C270.758 58.4546 271.9 57.6192 273.127 56.9222C274.185 56.3177 275.335 55.891 276.531 55.6591C277.367 55.5352 278.217 55.5352 279.053 55.6591C280.017 55.7445 280.955 56.0132 281.817 56.4508C282.451 56.7794 283.042 57.1854 283.577 57.6595C283.971 57.9926 284.345 58.3498 284.696 58.7291C285.361 59.4845 286.038 60.2339 286.764 60.9289C287.581 61.7706 288.636 62.3421 289.788 62.5667C290.598 62.7224 291.433 62.7038 292.236 62.5121C293.039 62.3204 293.792 61.9599 294.444 61.4547C294.976 61.0498 295.478 60.6146 295.968 60.1674C296.676 59.4873 297.494 58.9316 298.387 58.5237C299.149 58.1802 299.971 57.9912 300.806 57.9677C300.97 57.9859 301.135 57.9673 301.29 57.9133C301.352 57.904 301.415 57.904 301.478 57.9133C302.634 57.9511 303.776 58.1777 304.858 58.5841C306.213 59.147 307.446 59.968 308.487 61.0014C309.391 61.875 310.189 62.8528 310.863 63.9143C311.062 64.1801 311.218 64.4759 311.323 64.7906Z" fill="#EDEEF2"/>
<path d="M200.55 173.164C201.83 172.483 203.182 171.944 204.581 171.558C205.534 171.309 206.461 170.972 207.351 170.551C207.994 170.24 208.513 169.721 208.824 169.079C209.065 168.648 209.191 168.163 209.191 167.67C209.191 167.177 209.065 166.692 208.824 166.262C208.225 165.239 207.31 164.438 206.216 163.98C205.12 163.413 203.898 163.132 202.664 163.162C201.483 163.214 200.331 163.537 199.295 164.106L195.947 159.155C197.816 158.044 199.954 157.467 202.128 157.485C204.616 157.532 207.059 158.152 209.268 159.296C211.816 160.39 213.963 162.245 215.415 164.606C215.986 165.589 216.297 166.701 216.319 167.837C216.341 168.973 216.074 170.096 215.541 171.1C215.102 172.052 214.468 172.902 213.681 173.594C213.018 174.182 212.26 174.653 211.439 174.988C210.678 175.298 209.726 175.615 208.592 175.946C207.524 176.224 206.483 176.599 205.483 177.066C204.747 177.456 204.16 178.077 203.813 178.834L198.04 176.024C198.566 174.837 199.441 173.84 200.55 173.164ZM194.157 184.737C193.971 184.258 193.888 183.746 193.915 183.234C193.942 182.721 194.077 182.22 194.312 181.764C194.52 181.304 194.824 180.894 195.205 180.563C195.586 180.231 196.034 179.985 196.518 179.841C197.56 179.566 198.667 179.673 199.637 180.144C200.607 180.614 201.376 181.416 201.804 182.405C201.976 182.883 202.049 183.39 202.021 183.897C201.992 184.404 201.862 184.899 201.638 185.355C201.413 185.81 201.1 186.216 200.715 186.548C200.331 186.879 199.884 187.131 199.401 187.286C198.366 187.594 197.253 187.502 196.283 187.03C195.312 186.558 194.553 185.74 194.157 184.737Z" fill="#C8C9CC"/>
<defs>
<linearGradient id="paint0_linear_8059_47492" x1="172.876" y1="181.518" x2="174.573" y2="212.278" gradientUnits="userSpaceOnUse">
<stop offset="0.5" stop-color="white"/>
<stop offset="0.55" stop-color="#E1E1E1"/>
<stop offset="0.66" stop-color="#959595"/>
<stop offset="0.81" stop-color="#1D1D1D"/>
<stop offset="0.84"/>
</linearGradient>
</defs>
</svg>
